<mxfile host="app.diagrams.net" modified="2023-04-29T01:50:42.364Z" agent="Mozilla/5.0 (Macintosh; Intel Mac OS X 10_15_7) AppleWebKit/537.36 (KHTML, like Gecko) Chrome/112.0.0.0 Safari/537.36" etag="a-0KuQU--5j8zro0suAL" version="21.2.3" type="github">
  <diagram id="3228e29e-7158-1315-38df-8450db1d8a1d" name="Page-1">
    <mxGraphModel dx="871" dy="153" grid="0" gridSize="10" guides="1" tooltips="1" connect="1" arrows="1" fold="1" page="1" pageScale="1" pageWidth="600" pageHeight="180" background="#EFF1F3" math="0" shadow="0">
      <root>
        <mxCell id="0" />
        <mxCell id="1" parent="0" />
        <mxCell id="LvesvwtV2vatUiFBe1HR-21533" value="" style="shape=image;verticalLabelPosition=bottom;verticalAlign=top;imageAspect=0;aspect=fixed;image=data:image/svg+xml,PHN2ZyB4bWxuczp4bGluaz0iaHR0cDovL3d3dy53My5vcmcvMTk5OS94bGluayIgeG1sbnM9Imh0dHA6Ly93d3cudzMub3JnLzIwMDAvc3ZnIiBoZWlnaHQ9IjIwMCIgd2lkdGg9IjIwMCIgdmVyc2lvbj0iMS4xIiB2aWV3Qm94PSIwIDAgMTAyNCAxMDI0IiBjbGFzcz0iaWNvbiI+PGRlZnM+PHN0eWxlIHR5cGU9InRleHQvY3NzIj5AZm9udC1mYWNlIHsgZm9udC1mYW1pbHk6IGZlZWRiYWNrLWljb25mb250OyBzcmM6IHVybCgiLy9hdC5hbGljZG4uY29tL3QvZm9udF8xMDMxMTU4X3U2OXc4eWh4ZHUud29mZjI/dD0xNjMwMDMzNzU5OTQ0IikgZm9ybWF0KCJ3b2ZmMiIpLCB1cmwoIi8vYXQuYWxpY2RuLmNvbS90L2ZvbnRfMTAzMTE1OF91Njl3OHloeGR1LndvZmY/dD0xNjMwMDMzNzU5OTQ0IikgZm9ybWF0KCJ3b2ZmIiksIHVybCgiLy9hdC5hbGljZG4uY29tL3QvZm9udF8xMDMxMTU4X3U2OXc4eWh4ZHUudHRmP3Q9MTYzMDAzMzc1OTk0NCIpIGZvcm1hdCgidHJ1ZXR5cGUiKTsgfSYjeGE7PC9zdHlsZT48L2RlZnM+PHBhdGggZmlsbD0iIzRBOTE5QiIgZD0iTTg0Mi4zOTQ1OTUgNzk5LjczMzIzNyA2NDAuOTczMDc2IDc5OS43MzMyMzcgNjQwLjk3MzA3NiA5MTQuODI1NTA4bDU3LjU0OTAwNSAwYzE1LjkwMzg1MyAwIDI4Ljc3NDUwMyAxMi44NjkwOTkgMjguNzc0NTAzIDI4Ljc3MzMyNCAwIDE1LjkwMzIwMi0xMi44NzA2NDkgMjguNzcyMy0yOC43NzQ1MDMgMjguNzcyM0wzNTMuMjI4MDUgOTcyLjM3MTEzMmMtMTUuOTA0ODc3IDAtMjguNzc0NTAzLTEyLjg2OTA5OS0yOC43NzQ1MDMtMjguNzcyMyAwLTE1LjkwNDIyNSAxMi44Njk2MjYtMjguNzczMzI0IDI4Ljc3NDUwMy0yOC43NzMzMjRsNTcuNTQ5MDA1IDBMNDEwLjc3NzA1NSA3OTkuNzMzMjM3IDE4MC41ODEwMzQgNzk5LjczMzIzN2MtNjMuNTYyMTk5IDAtMTE1LjA5ODAxMS01MS41MzM3LTExNS4wOTgwMTEtMTE1LjA5MzI5NUw2NS40ODMwMjMgMTY2LjcyMDExNmMwLTYzLjU1OTU5NSA1MS41MzU4MTItMTE1LjA5MzI5NSAxMTUuMDk4MDExLTExNS4wOTMyOTVsNjYxLjgxMjUzNyAwYzYzLjU2MTE3NiAwIDExNS4wOTgwMTEgNTEuNTMzNyAxMTUuMDk4MDExIDExNS4wOTMyOTVsMCA1MTcuOTE5ODI2Qzk1Ny40OTE1ODIgNzQ4LjE5ODUxMyA5MDUuOTU1NzcgNzk5LjczMzIzNyA4NDIuMzk0NTk1IDc5OS43MzMyMzd6TTU4My40MjQwNzEgOTE0LjgyNTUwOCA1ODMuNDI0MDcxIDc5OS43MzMyMzcgNDY4LjMyNjA2IDc5OS43MzMyMzcgNDY4LjMyNjA2IDkxNC44MjU1MDggNTgzLjQyNDA3MSA5MTQuODI1NTA4ek04OTkuOTQyNTc3IDE2Ni43MjAxMTZjMC0zMS43Nzk3OTctMjUuNzY3OTA2LTU3LjU0NjY0Ny01Ny41NDc5ODItNTcuNTQ2NjQ3TDE4MC41ODEwMzQgMTA5LjE3MzQ2OGMtMzEuNzgxMDk5IDAtNTcuNTQ5MDA1IDI1Ljc2Njg1LTU3LjU0OTAwNSA1Ny41NDY2NDdsMCA0MDIuODI2NTMyTDg5OS45NDI1NzcgNTY5LjU0NjY0NyA4OTkuOTQyNTc3IDE2Ni43MjAxMTZ6TTg5OS45NDI1NzcgNjI3LjA5MzI5NSAxMjMuMDMzMDUyIDYyNy4wOTMyOTVsMCA1Ny41NDY2NDdjMCAzMS43Nzk3OTcgMjUuNzY3OTA2IDU3LjU0NTYyNCA1Ny41NDkwMDUgNTcuNTQ1NjI0bDY2MS44MTI1MzcgMGMzMS43ODEwOTkgMCA1Ny41NDc5ODItMjUuNzY2ODUgNTcuNTQ3OTgyLTU3LjU0NTYyNEw4OTkuOTQyNTc3IDYyNy4wOTMyOTV6Ii8+PC9zdmc+" parent="1" vertex="1">
          <mxGeometry x="17" y="411" width="86.69" height="86.69" as="geometry" />
        </mxCell>
        <mxCell id="LvesvwtV2vatUiFBe1HR-21534" value="" style="shape=image;verticalLabelPosition=bottom;verticalAlign=top;imageAspect=0;aspect=fixed;image=data:image/svg+xml,PHN2ZyB4bWxuczp4bGluaz0iaHR0cDovL3d3dy53My5vcmcvMTk5OS94bGluayIgeG1sbnM9Imh0dHA6Ly93d3cudzMub3JnLzIwMDAvc3ZnIiBoZWlnaHQ9IjIwMCIgd2lkdGg9IjIwMCIgdmVyc2lvbj0iMS4xIiB2aWV3Qm94PSIwIDAgMTAyNCAxMDI0IiBjbGFzcz0iaWNvbiI+PGRlZnM+PHN0eWxlIHR5cGU9InRleHQvY3NzIj5AZm9udC1mYWNlIHsgZm9udC1mYW1pbHk6IGZlZWRiYWNrLWljb25mb250OyBzcmM6IHVybCgiLy9hdC5hbGljZG4uY29tL3QvZm9udF8xMDMxMTU4X3U2OXc4eWh4ZHUud29mZjI/dD0xNjMwMDMzNzU5OTQ0IikgZm9ybWF0KCJ3b2ZmMiIpLCB1cmwoIi8vYXQuYWxpY2RuLmNvbS90L2ZvbnRfMTAzMTE1OF91Njl3OHloeGR1LndvZmY/dD0xNjMwMDMzNzU5OTQ0IikgZm9ybWF0KCJ3b2ZmIiksIHVybCgiLy9hdC5hbGljZG4uY29tL3QvZm9udF8xMDMxMTU4X3U2OXc4eWh4ZHUudHRmP3Q9MTYzMDAzMzc1OTk0NCIpIGZvcm1hdCgidHJ1ZXR5cGUiKTsgfSYjeGE7PC9zdHlsZT48L2RlZnM+PHBhdGggZmlsbD0iIzRBOTE5QiIgZD0iTTAgNzI4djEzNmMwIDM1LjMgMjguNyA2NCA2NCA2NGg4OTZjMzUuMyAwIDY0LTI4LjcgNjQtNjRWNzI4YzAtNC40LTMuNi04LTgtOEg4Yy00LjQgMC04IDMuNi04IDh6IG03NzQgOTZjMCA0LjQtMy42IDgtOCA4SDQyNGMtNC40IDAtOC0zLjYtOC04di00OGMwLTQuNCAzLjYtOCA4LThoMzQyYzQuNCAwIDggMy42IDggOHY0OHogbTEyMiAwYzAgNC40LTMuNiA4LTggOGgtNDhjLTQuNCAwLTgtMy42LTgtOHYtNDhjMC00LjQgMy42LTggOC04aDQ4YzQuNCAwIDggMy42IDggOHY0OHpNMCA1MzZ2MTQ0YzAgNC40IDMuNiA4IDggOGgxMDA4YzQuNCAwIDgtMy42IDgtOFY1MzZjMC00LjQtMy42LTgtOC04SDhjLTQuNCAwLTggMy42LTggOHogbTc3NCA5NmMwIDQuNC0zLjYgOC04IDhINDI0Yy00LjQgMC04LTMuNi04LTh2LTQ4YzAtNC40IDMuNi04IDgtOGgzNDJjNC40IDAgOCAzLjYgOCA4djQ4eiBtMTIyIDBjMCA0LjQtMy42IDgtOCA4aC00OGMtNC40IDAtOC0zLjYtOC04di00OGMwLTQuNCAzLjYtOCA4LThoNDhjNC40IDAgOCAzLjYgOCA4djQ4ek0wIDM0NHYxNDRjMCA0LjQgMy42IDggOCA4aDEwMDhjNC40IDAgOC0zLjYgOC04VjM0NGMwLTQuNC0zLjYtOC04LThIOGMtNC40IDAtOCAzLjYtOCA4eiBtNzc0IDk2YzAgNC40LTMuNiA4LTggOEg0MjRjLTQuNCAwLTgtMy42LTgtOHYtNDhjMC00LjQgMy42LTggOC04aDM0MmM0LjQgMCA4IDMuNiA4IDh2NDh6IG0xMjIgMGMwIDQuNC0zLjYgOC04IDhoLTQ4Yy00LjQgMC04LTMuNi04LTh2LTQ4YzAtNC40IDMuNi04IDgtOGg0OGM0LjQgMCA4IDMuNiA4IDh2NDh6TTk2MCA5Nkg2NGMtMzUuMyAwLTY0IDI4LjctNjQgNjR2MTM2YzAgNC40IDMuNiA4IDggOGgxMDA4YzQuNCAwIDgtMy42IDgtOFYxNjBjMC0zNS4zLTI4LjctNjQtNjQtNjR6TTc3NCAyNDhjMCA0LjQtMy42IDgtOCA4SDQyNGMtNC40IDAtOC0zLjYtOC04di00OGMwLTQuNCAzLjYtOCA4LThoMzQyYzQuNCAwIDggMy42IDggOHY0OHogbTEyMiAwYzAgNC40LTMuNiA4LTggOGgtNDhjLTQuNCAwLTgtMy42LTgtOHYtNDhjMC00LjQgMy42LTggOC04aDQ4YzQuNCAwIDggMy42IDggOHY0OHoiLz48L3N2Zz4=" parent="1" vertex="1">
          <mxGeometry x="496" y="417.84000000000003" width="73" height="73" as="geometry" />
        </mxCell>
        <mxCell id="jsef9Xo3sPEI110m0m4C-1" value="" style="rounded=1;whiteSpace=wrap;html=1;strokeColor=none;fillColor=#E6D7C2;" parent="1" vertex="1">
          <mxGeometry x="140" y="410.69" width="311" height="87" as="geometry" />
        </mxCell>
        <mxCell id="jsef9Xo3sPEI110m0m4C-24" value="" style="shape=flexArrow;endArrow=classic;html=1;rounded=0;strokeColor=none;fillColor=#FDD276;width=8.070175438596491;endSize=3.5508771929824556;endWidth=11.905201600492457;" parent="1" edge="1">
          <mxGeometry width="50" height="50" relative="1" as="geometry">
            <mxPoint x="103.69" y="454.02" as="sourcePoint" />
            <mxPoint x="133.69" y="454.45000000000005" as="targetPoint" />
          </mxGeometry>
        </mxCell>
        <mxCell id="jsef9Xo3sPEI110m0m4C-29" value="" style="shape=flexArrow;endArrow=classic;html=1;rounded=0;strokeColor=none;fillColor=#FDD276;width=8.070175438596491;endSize=3.5508771929824556;endWidth=11.905201600492457;" parent="1" edge="1">
          <mxGeometry width="50" height="50" relative="1" as="geometry">
            <mxPoint x="459" y="454.02" as="sourcePoint" />
            <mxPoint x="489" y="454.45000000000005" as="targetPoint" />
          </mxGeometry>
        </mxCell>
        <mxCell id="N1RMKMh5gHixkr7Ac_zt-6" value="&lt;font color=&quot;#ffffff&quot;&gt;报头&lt;/font&gt;" style="rounded=0;whiteSpace=wrap;html=1;fillColor=#4A919B;strokeColor=none;" parent="1" vertex="1">
          <mxGeometry x="152" y="422.69" width="47" height="39.66" as="geometry" />
        </mxCell>
        <mxCell id="rYrPnXi-sTgDYE3jbyFP-1" value="&lt;font color=&quot;#ffffff&quot; style=&quot;font-size: 18px;&quot;&gt;A&lt;/font&gt;" style="rounded=0;whiteSpace=wrap;html=1;fontColor=#4A919B;fillColor=#9AC7BF;strokeColor=none;" parent="1" vertex="1">
          <mxGeometry x="152" y="462.35" width="47" height="22.34" as="geometry" />
        </mxCell>
        <mxCell id="rYrPnXi-sTgDYE3jbyFP-2" value="&lt;font color=&quot;#ffffff&quot;&gt;报头&lt;/font&gt;" style="rounded=0;whiteSpace=wrap;html=1;fillColor=#4A919B;strokeColor=none;" parent="1" vertex="1">
          <mxGeometry x="212" y="422.69" width="47" height="39.66" as="geometry" />
        </mxCell>
        <mxCell id="rYrPnXi-sTgDYE3jbyFP-3" value="&lt;font color=&quot;#ffffff&quot; style=&quot;font-size: 18px;&quot;&gt;B&lt;/font&gt;" style="rounded=0;whiteSpace=wrap;html=1;fontColor=#4A919B;fillColor=#9AC7BF;strokeColor=none;" parent="1" vertex="1">
          <mxGeometry x="212" y="462.35" width="47" height="22.34" as="geometry" />
        </mxCell>
        <mxCell id="rYrPnXi-sTgDYE3jbyFP-4" value="&lt;font color=&quot;#ffffff&quot;&gt;报头&lt;/font&gt;" style="rounded=0;whiteSpace=wrap;html=1;fillColor=#4A919B;strokeColor=none;" parent="1" vertex="1">
          <mxGeometry x="272" y="422.69" width="47" height="39.66" as="geometry" />
        </mxCell>
        <mxCell id="rYrPnXi-sTgDYE3jbyFP-5" value="&lt;font color=&quot;#ffffff&quot;&gt;&lt;span style=&quot;font-size: 18px;&quot;&gt;上&lt;/span&gt;&lt;/font&gt;" style="rounded=0;whiteSpace=wrap;html=1;fontColor=#4A919B;fillColor=#9AC7BF;strokeColor=none;" parent="1" vertex="1">
          <mxGeometry x="272" y="462.35" width="47" height="22.34" as="geometry" />
        </mxCell>
        <mxCell id="rYrPnXi-sTgDYE3jbyFP-10" value="&lt;font color=&quot;#ffffff&quot;&gt;报头&lt;/font&gt;" style="rounded=0;whiteSpace=wrap;html=1;fillColor=#4A919B;strokeColor=none;" parent="1" vertex="1">
          <mxGeometry x="332" y="422.69" width="47" height="39.66" as="geometry" />
        </mxCell>
        <mxCell id="rYrPnXi-sTgDYE3jbyFP-11" value="&lt;font color=&quot;#ffffff&quot; style=&quot;font-size: 18px;&quot;&gt;下&lt;/font&gt;" style="rounded=0;whiteSpace=wrap;html=1;fontColor=#4A919B;fillColor=#9AC7BF;strokeColor=none;" parent="1" vertex="1">
          <mxGeometry x="332" y="462.35" width="47" height="22.34" as="geometry" />
        </mxCell>
        <mxCell id="rYrPnXi-sTgDYE3jbyFP-12" value="&lt;font color=&quot;#ffffff&quot;&gt;报头&lt;/font&gt;" style="rounded=0;whiteSpace=wrap;html=1;fillColor=#4A919B;strokeColor=none;" parent="1" vertex="1">
          <mxGeometry x="391" y="422.69" width="47" height="39.66" as="geometry" />
        </mxCell>
        <mxCell id="rYrPnXi-sTgDYE3jbyFP-13" value="&lt;font color=&quot;#ffffff&quot; style=&quot;font-size: 18px;&quot;&gt;跳&lt;/font&gt;" style="rounded=0;whiteSpace=wrap;html=1;fontColor=#4A919B;fillColor=#9AC7BF;strokeColor=none;" parent="1" vertex="1">
          <mxGeometry x="391" y="462.35" width="47" height="22.34" as="geometry" />
        </mxCell>
        <mxCell id="HHSBR2NDz_V0C8qBxGoh-1" value="&lt;font color=&quot;#4a919b&quot;&gt;网络带宽&lt;/font&gt;" style="text;html=1;strokeColor=none;fillColor=none;align=center;verticalAlign=middle;whiteSpace=wrap;rounded=0;" vertex="1" parent="1">
          <mxGeometry x="265.5" y="494" width="60" height="30" as="geometry" />
        </mxCell>
        <mxCell id="HHSBR2NDz_V0C8qBxGoh-2" value="" style="shape=image;verticalLabelPosition=bottom;labelBackgroundColor=default;verticalAlign=top;aspect=fixed;imageAspect=0;image=data:image/svg+xml,PHN2ZyB4bWxuczp4bGluaz0iaHR0cDovL3d3dy53My5vcmcvMTk5OS94bGluayIgeG1sbnM9Imh0dHA6Ly93d3cudzMub3JnLzIwMDAvc3ZnIiBoZWlnaHQ9IjEyOCIgd2lkdGg9IjEyOCIgdmVyc2lvbj0iMS4xIiB2aWV3Qm94PSIwIDAgMTAyNCAxMDI0IiBjbGFzcz0iaWNvbiI+PHBhdGggZmlsbD0iIzRBOTE5QiIgZD0iTTgxNC4wMjcyODkgOTU4LjUwNjM1N2MtNzkuODg5NTE1IDAtMTkyLjk3NzEzLTg4LjUzOTUyMi0yMzguOTIxNTMxLTE4NC42MzkyMzFMNDQ4Ljg3OTkxNSA3NzMuODY3MTI2Yy00NS42NzczMTkgOTYuMDk4Njg1LTE1OC43MDk2NzUgMTgyLjY1NDAxNy0yMzguOTA5MjUyIDE4Mi42NTQwMTctMTQ1LjY3ODg5NCAwLTE3OC40NzE3NjQtMjg0LjcyNjc2My0xNzguNDcxNzY0LTM4NC4zODE0MzcgMC0xMzAuODc2NzcgMTA0LjY5MzQzNC0yMzcuNTk0MzAzIDIzMy4zODU0NDUtMjM3LjU5NDMwM2w0OTQuMjI4MjQxIDBjMTI4LjY5MjAxMSAwIDIzMy4zODU0NDUgMTA2LjIwODk1IDIzMy4zODU0NDUgMjM2LjQ2ODY2NkM5OTIuNTAwMDc3IDY3MS40NzMwNjEgOTU5LjcwNzIwNyA5NTguNTA2MzU3IDgxNC4wMjcyODkgOTU4LjUwNjM1N3pNNDMwLjk0MTM1OCA3MTguOTUyNDIybDE2Mi4xMTUyMzggMGMxMS4zMTU3MiAwIDIxLjQ2Mzg0OCA3LjQyNzE1NiAyNS41ODA2MDggMTcuOTY2MTg3IDMzLjQ3NjQzOSA4NS44Mjk4MDcgMTM4LjQ1MjMwNSAxNjYuODg2OTE1IDE5NS4zODkwNjIgMTY2Ljg4NjkxNSA4Mi4yNjQ2MDkgMCAxMjMuNTU4MDg0LTIxMy40MDMzNDUgMTIzLjU1ODA4NC0zMzIuNjcwNzA1IDAtOTkuOTczOTQ2LTgwLjA2NTUyNC0xODEuNjc0NzEzLTE3OC40NzE3NjQtMTgxLjY3NDcxM0wyNjQuODg1MzY4IDM4OS40NjAxMDZjLTk2Ljc0NDM5MSAwLTE3OC40NzE3NjQgODQuMDMzOTA1LTE3OC40NzE3NjQgMTgyLjkyMjEyMyAwIDEzNC41NTA0MzkgNDQuMDAxMTQzIDMyOS40MzkxMDQgMTIzLjU1NzA2IDMyOS40MzkxMDQgNTcuMjczNDI1IDAgMTYyLjMxNTgwNi04MC4xOTk1NzcgMTk1LjM5MDA4Ni0xNjUuMDM3OEM0MDkuNDc3NTEgNzI2LjI0NTUyNiA0MTkuNjI2NjYxIDcxOC45NTI0MjIgNDMwLjk0MTM1OCA3MTguOTUyNDIyeiIvPjxwYXRoIGZpbGw9IiM0QTkxOUIiIGQ9Ik00OTEuNDA2NDc0IDY5MS40ODg5MzFsLTEzLjcyODY3NiAwYy03LjU4ODgzOSAwLTEzLjcyODY3Ni02LjE0MTg4NC0xMy43Mjg2NzYtMTMuNzI4Njc2IDAtNy41ODg4MzkgNi4xMzk4MzctMTMuNzI4Njc2IDEzLjcyODY3Ni0xMy43Mjg2NzZsMTMuNzI4Njc2IDBjNy41ODg4MzkgMCAxMy43Mjg2NzYgNi4xMzk4MzcgMTMuNzI4Njc2IDEzLjcyODY3NkM1MDUuMTM1MTUgNjg1LjM0ODA3IDQ5OC45OTUzMTMgNjkxLjQ4ODkzMSA0OTEuNDA2NDc0IDY5MS40ODg5MzF6Ii8+PHBhdGggZmlsbD0iIzRBOTE5QiIgZD0iTTIxMS4yODQ1ODkgODY1LjMwMTU4MmMtNy41ODg4MzkgMC0xMy43Mjg2NzYtNS45MjU5NjYtMTMuNzI4Njc2LTEzLjUxNDgwNSAwLTcuNTg2NzkyIDYuMTM5ODM3LTEzLjU5NDYyMyAxMy43Mjg2NzYtMTMuNTk0NjIzIDM5LjQxNjczMSAwIDEzNi4yMDAwMDgtOTguODM1MDA2IDE2MS43OTI4OTYtMTY0Ljk3NjQwMiAyLjA1MTcyOS01LjI4MjMwNyA3LjEzMjQ0NC05LjE4NDE3MyAxMi44MDM2MDctOS4xODQxNzNsNTAuNjEwNjc4IDBjNy41ODg4MzkgMCAxMy43Mjg2NzYgNi4xMzk4MzcgMTMuNzI4Njc2IDEzLjcyODY3NiAwIDcuNTg2NzkyLTYuMTM5ODM3IDEzLjcyODY3Ni0xMy43Mjg2NzYgMTMuNzI4Njc2bC00MS41MDczNDYgMEMzNjQuMTc1NzQ1IDc2MC4xMzg0NSAyNjcuOTE1Mzc3IDg2NS4zMDE1ODIgMjExLjI4NDU4OSA4NjUuMzAxNTgyeiIvPjxwYXRoIGZpbGw9IiM0QTkxOUIiIGQ9Ik01MTEuNzQ0Njg1IDM4Ni4zNTAyNzljLTcuOTA5MTM0IDAtMTUuNzY2MDc5LTMuNDA1NTYzLTIxLjE5NTc0MS05Ljk3NTE4OS05LjYzOTU0NC0xMS43MDQ1NzYtNy45OTA5OTgtMjkuMDEyNzc3IDMuNzAwMjc1LTM4LjY2NDYwMSAyMi45NjYwNjEtMTguOTQ0NDY4IDM4LjA4ODQ4LTQ0LjMxMDE4MiAzOC41MTcyNDUtNjQuNjA3NDYgMC4yNDE1LTExLjI4ODA5MS0zLjkxNDE0Ni0yMC4zOTE0MjMtMTMuMDk4MzE5LTI4LjY1MDUyNy0zMC43Mjc4MzktMjcuNjU4OTQzLTk0LjY1MTczLTg1LjIxMzc3Ny0zNC41NjIxNjctMTY4LjA1NDUwNyA4LjkxNTA0NC0xMi4yNTQwOTIgMjYuMDYzNjA5LTE0Ljk3NTA2MyAzOC4zNTY1ODYtNi4wOTk5MjggMTIuMjY3Mzk1IDguOTE2MDY3IDE1LjAwMTY2OSAyNi4wNzU4ODkgNi4wOTk5MjggMzguMzU2NTg2LTI0LjY5NTQ0OCAzNC4wMjU5NTQtMTkuMTcwNjE4IDUzLjU1OTg0NiAyNi44NDAyOTggOTQuOTg3Mzc1IDIxLjAzNjEwNiAxOC45MzExNjUgMzEuODU1NTIyIDQzLjM0NDE4MSAzMS4yNzgzNzcgNzAuNjI3NTcxLTAuNzkxMDE2IDM2LjY4MTQzNC0yMi42NDQ3NDMgNzYuMjMxMTk1LTU4LjQ2NjYgMTA1LjgwNjc5MUM1MjQuMDkxODk4IDM4NC4yODUyNDcgNTE3Ljg5ODg0OSAzODYuMzUwMjc5IDUxMS43NDQ2ODUgMzg2LjM1MDI3OXoiLz48cGF0aCBmaWxsPSIjNEE5MTlCIiBkPSJNMjYzLjI0OTEwMSA2OTIuNDQwNjA1Yy03LjU4ODgzOSAwLTEzLjcyODY3Ni02LjEzOTgzNy0xMy43Mjg2NzYtMTMuNzI4Njc2TDI0OS41MjA0MjUgNDg2LjUxMjUxM2MwLTcuNTg4ODM5IDYuMTM5ODM3LTEzLjcyODY3NiAxMy43Mjg2NzYtMTMuNzI4Njc2czEzLjcyODY3NiA2LjEzOTgzNyAxMy43Mjg2NzYgMTMuNzI4Njc2bDAgMTkyLjE5OTQxN0MyNzYuOTc3Nzc3IDY4Ni4zMDA3NjggMjcwLjgzNzk0IDY5Mi40NDA2MDUgMjYzLjI0OTEwMSA2OTIuNDQwNjA1eiIvPjxwYXRoIGZpbGw9IiM0QTkxOUIiIGQ9Ik0zNTQuMTIwNzM4IDU5NS4zODgxOTkgMTYxLjkyMTMyMSA1OTUuMzg4MTk5Yy03LjU4ODgzOSAwLTEzLjcyODY3Ni02LjEzOTgzNy0xMy43Mjg2NzYtMTMuNzI4Njc2czYuMTM5ODM3LTEzLjcyODY3NiAxMy43Mjg2NzYtMTMuNzI4Njc2bDE5Mi4xOTk0MTcgMGM3LjU4ODgzOSAwIDEzLjcyODY3NiA2LjEzOTgzNyAxMy43Mjg2NzYgMTMuNzI4Njc2UzM2MS43MDk1NzcgNTk1LjM4ODE5OSAzNTQuMTIwNzM4IDU5NS4zODgxOTl6Ii8+PHBhdGggZmlsbD0iIzRBOTE5QiIgZD0iTTc2OC42MTkxIDU4My44NzE5MTFjLTEyLjU3NTQxIDAtMjQuMzg2NDEtNC45MDY3NTMtMzMuMjc2ODk0LTEzLjgwODQ5NC04Ljg3NDExMS04Ljg2MTgzMi0xMy43Njg1ODUtMjAuNjczODU1LTEzLjc2ODU4NS0zMy4yNDkyNjVzNC44OTQ0NzQtMjQuMzg2NDEgMTMuNzgyOTExLTMzLjI3NTg3MWMxNy43NTEyOTMtMTcuNzc3ODk5IDQ4Ljc3Mzg0My0xNy43Nzc4OTkgNjYuNTI1MTM2IDAgOC45MDE3NDEgOC44ODk0NjEgMTMuNzk1MTkxIDIwLjcwMDQ2MSAxMy43OTUxOTEgMzMuMjc1ODcxcy00Ljg5MzQ1IDI0LjM4NzQzMy0xMy43ODE4ODggMzMuMjYxNTQ1Qzc5My4wMDU1MSA1NzguOTY2MTgxIDc4MS4xOTQ1MSA1ODMuODcxOTExIDc2OC42MTkxIDU4My44NzE5MTF6TTc2OC42MTkxIDUxNy4yMjcwNDhjLTUuMjI4MDcxIDAtMTAuMTQ5MTUxIDIuMDI1MTIzLTEzLjg0OTQyNiA1LjcyNDM3NS0zLjY5OTI1MiAzLjcwMDI3NS01LjczNzY3OCA4LjYyMDMzMS01LjczNzY3OCAxMy44NjI3MjkgMCA1LjIyODA3MSAyLjAzODQyNiAxMC4xNDkxNTEgNS43Mzc2NzggMTMuODQ4NDAzIDcuNDAwNTUgNy40MjkyMDMgMjAuMjgzOTc1IDcuNDI5MjAzIDI3LjcxMjE1NSAwIDMuNzAwMjc1LTMuNjk5MjUyIDUuNzM3Njc4LTguNjIwMzMxIDUuNzM3Njc4LTEzLjg0ODQwM3MtMi4wMzc0MDMtMTAuMTQ4MTI4LTUuNzUwOTgxLTEzLjg2MjcyOUM3NzguNzY4MjUxIDUxOS4yNTIxNzEgNzczLjg0ODE5NSA1MTcuMjI3MDQ4IDc2OC42MTkxIDUxNy4yMjcwNDh6Ii8+PHBhdGggZmlsbD0iIzRBOTE5QiIgZD0iTTg0My44OTk2NDQgNjU5LjEzNzEwNWMtMTIuNTc2NDMzIDAtMjQuNDAxNzYtNC45MDY3NTMtMzMuMjg5MTc0LTEzLjgwODQ5NC04Ljg3NjE1OC04Ljg2MTgzMi0xMy43Njg1ODUtMjAuNjcxODA5LTEzLjc2ODU4NS0zMy4yNDkyNjUgMC0xMi41NzU0MSA0Ljg5MjQyNy0yNC4zODUzODcgMTMuNzgxODg4LTMzLjI2MTU0NSAxNy43NTEyOTMtMTcuNzc3ODk5IDQ4Ljc1OTUxNy0xNy43Nzc4OTkgNjYuNTM3NDE2IDAgMTguMzU0MDIgMTguMzI3NDE0IDE4LjM1NDAyIDQ4LjE3MTExNiAwLjAxNDMyNiA2Ni41Mzg0MzlDODY4LjI3Mjc1MSA2NTQuMjQ0Njc4IDg1Ni40NjA3MjggNjU5LjEzNzEwNSA4NDMuODk5NjQ0IDY1OS4xMzcxMDV6TTg0My44ODUzMTggNTkyLjQ5MjI0MmMtNS4yMjgwNzEgMC0xMC4xNDkxNTEgMi4wMzg0MjYtMTMuODQ5NDI2IDUuNzM3Njc4LTMuNzAwMjc1IDMuNzAxMjk5LTUuNzM3Njc4IDguNjIwMzMxLTUuNzM3Njc4IDEzLjg0ODQwMyAwIDUuMjMwMTE4IDIuMDM3NDAzIDEwLjE0OTE1MSA1LjczNzY3OCAxMy44NTA0NDkgNy40MTM4NTMgNy40MTI4MyAyMC4zMTE2MDUgNy40MTI4MyAyNy43MjY0ODEgMC4wMTIyOCA3LjYyNzcyNC03LjY0MTAyNyA3LjYyNzcyNC0yMC4wNjgwNTgtMC4wMTQzMjYtMjcuNzExMTMyQzg1NC4wNDc3NzIgNTk0LjUzMDY2OCA4NDkuMTI3NzE1IDU5Mi40OTIyNDIgODQzLjg4NTMxOCA1OTIuNDkyMjQyeiIvPjxwYXRoIGZpbGw9IiM0QTkxOUIiIGQ9Ik02OTMuMzUyODgzIDY1OS4xMzcxMDVjLTEyLjU3NTQxIDAtMjQuMzg3NDMzLTQuODkyNDI3LTMzLjI3NTg3MS0xMy43OTQxNjgtOC44ODk0NjEtOC44ODg0MzgtMTMuNzgyOTExLTIwLjcwMDQ2MS0xMy43Njg1ODUtMzMuMjYzNTkxIDAtMTIuNTc1NDEgNC44OTI0MjctMjQuMzg1Mzg3IDEzLjc4MjkxMS0zMy4yNjE1NDUgMTcuNzUwMjY5LTE3Ljc3Nzg5OSA0OC43NzI4Mi0xNy43Nzc4OTkgNjYuNTI0MTEzIDAgOC44ODk0NjEgOC44NjE4MzIgMTMuNzk1MTkxIDIwLjY3Mzg1NSAxMy43OTUxOTEgMzMuMjQ5MjY1IDAuMDE0MzI2IDEyLjU3NTQxLTQuODgxMTcxIDI0LjM5OTcxMy0xMy43ODI5MTEgMzMuMjg5MTc0QzcxNy43NDEzMzkgNjU0LjI0NDY3OCA3MDUuOTI5MzE2IDY1OS4xMzcxMDUgNjkzLjM1Mjg4MyA2NTkuMTM3MTA1ek02OTMuMzUyODgzIDU5Mi40OTIyNDJjLTUuMjI4MDcxIDAtMTAuMTQ5MTUxIDIuMDM4NDI2LTEzLjg0ODQwMyA1LjczNzY3OC0zLjcwMTI5OSAzLjcwMTI5OS01LjczNzY3OCA4LjYyMDMzMS01LjczNzY3OCAxMy44NDg0MDMgMCA1LjIzMDExOCAyLjAyNTEyMyAxMC4xNDkxNTEgNS43MjQzNzUgMTMuODUwNDQ5IDcuNDI3MTU2IDcuNDQwNDU5IDIwLjMyMzg4NCA3LjQwMDU1IDI3LjcyNTQ1OCAwLjAxMjI4IDMuNzAwMjc1LTMuNjk5MjUyIDUuNzM3Njc4LTguNjMyNjExIDUuNzM3Njc4LTEzLjg2MjcyOSAwLTUuMjI4MDcxLTIuMDM3NDAzLTEwLjE0NzEwNC01LjczNzY3OC0xMy44MzUxQzcwMy41MDIwMzQgNTk0LjUzMDY2OCA2OTguNTgxOTc3IDU5Mi40OTIyNDIgNjkzLjM1Mjg4MyA1OTIuNDkyMjQyeiIvPjxwYXRoIGZpbGw9IiM0QTkxOUIiIGQ9Ik03NjguNjE5MSA3MzQuMzk2MTU5Yy0xMi41NzU0MSAwLTI0LjM4NjQxLTQuODc5MTI0LTMzLjI2MjU2OC0xMy43ODA4NjUtOC44ODg0MzgtOC44NzYxNTgtMTMuNzgyOTExLTIwLjY5NDMyMS0xMy43ODI5MTEtMzMuMjY5NzMxczQuODk0NDc0LTI0LjM4NzQzMyAxMy43ODI5MTEtMzMuMjYzNTkxYzE3Ljc1MTI5My0xNy43NzU4NTIgNDguNzczODQzLTE3Ljc3NTg1MiA2Ni41MjUxMzYgMCA4Ljg4ODQzOCA4Ljg2MTgzMiAxMy43OTUxOTEgMjAuNjczODU1IDEzLjc5NTE5MSAzMy4yNDkyNjUgMC4wMTMzMDMgMTIuNTc1NDEtNC44ODAxNDcgMjQuNDA3ODk5LTEzLjc4MTg4OCAzMy4yODMwMzRDNzkzLjAwNTUxIDcyOS41MTgwNTkgNzgxLjE5NDUxIDczNC4zOTYxNTkgNzY4LjYxOTEgNzM0LjM5NjE1OXpNNzY4LjYxOTEgNjY3Ljc1OTQ4M2MtNS4yMjgwNzEgMC0xMC4xNDkxNTEgMi4wMzYzNzktMTMuODQ5NDI2IDUuNzM3Njc4LTMuNjk5MjUyIDMuNjk5MjUyLTUuNzM3Njc4IDguNjIwMzMxLTUuNzM3Njc4IDEzLjg0ODQwMyAwIDUuMjQyMzk4IDIuMDM4NDI2IDEwLjE2MzQ3NyA1LjczNzY3OCAxMy44NjI3MjkgNy40MTQ4NzcgNy40MjEwMTcgMjAuMzI0OTA4IDcuMzkzMzg3IDI3LjcxMjE1NSAwIDMuNzAwMjc1LTMuNjk5MjUyIDUuNzM3Njc4LTguNjM0NjU4IDUuNzM3Njc4LTEzLjg2MjcyOXMtMi4wMzc0MDMtMTAuMTQ5MTUxLTUuNzM3Njc4LTEzLjgzNjEyM0M3NzguNzY4MjUxIDY2OS43OTU4NjIgNzczLjg0ODE5NSA2NjcuNzU5NDgzIDc2OC42MTkxIDY2Ny43NTk0ODN6Ii8+PC9zdmc+;" vertex="1" parent="1">
          <mxGeometry x="40.18" y="420.02000000000004" width="40.33" height="40.33" as="geometry" />
        </mxCell>
      </root>
    </mxGraphModel>
  </diagram>
</mxfile>
